<svg width="28" height="29" viewBox="0 0 28 29" fill="none" xmlns="http://www.w3.org/2000/svg">
<path d="M6.09516 4.71141C7.66185 3.31062 9.68317 2.60326 11.7778 2.71966C13.8761 2.83606 15.8036 3.76196 17.205 5.32658C20.0981 8.55729 19.8216 13.538 16.5887 16.4291C15.0894 17.7696 13.2148 18.4288 11.3458 18.4288C9.18373 18.4288 7.03033 17.546 5.47858 15.8133C2.58581 12.5832 2.86224 7.60253 6.09516 4.71141ZM6.22094 15.1504C8.74734 17.9722 13.1009 18.2136 15.925 15.6876C18.7491 13.1623 18.9904 8.81198 16.4636 5.99016C15.2394 4.6232 13.5556 3.81436 11.7231 3.71288C11.5927 3.70592 11.4632 3.70227 11.3338 3.70227C9.64169 3.70227 8.03021 4.31611 6.7592 5.4526C3.93512 7.97827 3.69387 12.3285 6.22094 15.1504Z" fill="white"/>
<path d="M15.5796 6.76609C15.7631 6.97104 15.7455 7.28542 15.5408 7.46848C15.4455 7.55338 15.327 7.59516 15.2089 7.59516C15.0722 7.59516 14.9361 7.53945 14.8379 7.42935C13.1042 5.49364 10.1188 5.32849 8.18173 7.06025C7.97697 7.24364 7.6627 7.22606 7.47885 7.02145C7.29566 6.8165 7.31325 6.50212 7.51801 6.31906C9.86427 4.22119 13.4806 4.42215 15.5796 6.76609Z" fill="white"/>
<path d="M0.756832 9.92954C0.925749 7.11336 2.18184 4.53198 4.29379 2.65995C6.40574 0.787912 9.11836 -0.147276 11.9392 0.0188695C14.757 0.187668 17.3405 1.44288 19.2135 3.55335C22.9685 7.78391 22.6984 14.2125 18.6875 18.1194L20.4042 20.0767L20.9548 19.5888C21.1602 19.4064 21.4735 19.425 21.656 19.6293L27.6295 26.3C27.7178 26.3981 27.7629 26.5275 27.7556 26.6591C27.7483 26.7908 27.6889 26.9145 27.5906 27.0024L25.714 28.6807C25.6187 28.7656 25.5003 28.8074 25.3821 28.8074C25.2454 28.8074 25.1093 28.7514 25.0111 28.6416L19.0297 21.9623C18.9414 21.8638 18.8959 21.7341 18.9036 21.6018C18.9112 21.4702 18.9713 21.3461 19.0702 21.2586L19.6592 20.7366L17.9435 18.7807C16.0575 20.3052 13.7422 21.1233 11.3209 21.1233C11.1062 21.1233 10.8902 21.1166 10.6741 21.1037C7.8563 20.9346 5.27278 19.6794 3.39943 17.5689C1.52608 15.4584 0.587917 12.7457 0.756832 9.92954ZM25.421 27.6076L26.5556 26.5928L21.2445 20.662L20.1049 21.6718L25.421 27.6076ZM4.14445 16.909C5.84125 18.8208 8.18152 19.9576 10.7339 20.1105C13.2859 20.2677 15.7456 19.4137 17.6588 17.7185C21.6079 14.2181 21.9713 8.15965 18.4685 4.21329C16.7717 2.30146 14.4314 1.16464 11.8791 1.01176C11.6833 0.999822 11.4882 0.994184 11.2934 0.994184C8.95243 0.994184 6.72035 1.83851 4.95386 3.40412C3.04069 5.09973 1.90308 7.43836 1.75009 9.9889C1.59743 12.5398 2.44799 14.9975 4.14445 16.909Z" fill="white"/>
</svg>
