<svg width="35" height="35" viewBox="0 0 35 35" fill="none" xmlns="http://www.w3.org/2000/svg">
<g clip-path="url(#clip0)">
<path d="M10.7969 18.3695L16.7462 28.3266C16.8397 28.4832 17.0081 28.5798 17.1905 28.5812C17.1919 28.5812 17.1937 28.5812 17.1951 28.5812C17.3757 28.5812 17.5438 28.4877 17.6394 28.3342L23.8321 18.3772C23.8475 18.3525 23.8607 18.3267 23.8712 18.3005C24.6116 17.0913 25.0023 15.7102 25.0023 14.3001C25.0023 10.0626 21.554 6.61499 17.3154 6.61499C13.0782 6.61499 9.63062 10.0626 9.63062 14.3001C9.63062 15.7105 10.0216 17.092 10.7624 18.3015C10.7721 18.3249 10.7836 18.3476 10.7969 18.3695ZM17.3157 7.66165C20.9775 7.66165 23.9563 10.6398 23.9563 14.3005C23.9563 15.5438 23.6037 16.7621 22.9368 17.823C22.9208 17.8481 22.9075 17.8743 22.8967 17.9015L17.2041 27.0532L11.7403 17.9088C11.7285 17.8792 11.7142 17.8502 11.6967 17.8227C11.0299 16.7617 10.6773 15.5438 10.6773 14.3001C10.6773 10.6398 13.6554 7.66165 17.3157 7.66165Z" fill="#231F20"/>
<path d="M17.3168 17.158C18.8922 17.158 20.1739 15.8762 20.1739 14.3008C20.1739 12.7255 18.8922 11.4437 17.3168 11.4437C15.7414 11.4437 14.4597 12.7255 14.4597 14.3008C14.4597 15.8762 15.7414 17.158 17.3168 17.158ZM17.3168 12.49C18.3154 12.49 19.1276 13.3023 19.1276 14.3008C19.1276 15.2994 18.3154 16.1116 17.3168 16.1116C16.3183 16.1116 15.506 15.2994 15.506 14.3008C15.5057 13.3023 16.3183 12.49 17.3168 12.49Z" fill="#231F20"/>
<path d="M23.9239 31.5858H10.7094C10.4203 31.5858 10.1863 31.8202 10.1863 32.109C10.1863 32.3977 10.4203 32.6321 10.7094 32.6321H23.9239C24.2127 32.6321 24.4471 32.3977 24.4471 32.109C24.4471 31.8202 24.2127 31.5858 23.9239 31.5858Z" fill="#231F20"/>
</g>
<defs>
<clipPath id="clip0">
<rect width="35" height="35" transform="matrix(-1 0 0 1 35 0)" fill="white"/>
</clipPath>
</defs>
</svg>
