<svg width="30" height="30" viewBox="0 0 30 30" fill="none" xmlns="http://www.w3.org/2000/svg">
<path d="M23.5209 8.36179L20.1638 8.32442V6.12448C20.1638 3.21725 17.7982 0.852295 14.891 0.852295C11.9841 0.852295 9.6191 3.21755 9.6191 6.12448V8.20663L6.38362 8.17046C6.26105 8.17315 6.14835 8.2159 6.06345 8.3002C5.97825 8.38451 5.93042 8.4993 5.93042 8.61888V28.5938C5.93042 28.8416 6.13101 29.0422 6.37884 29.0422H23.5164C23.7643 29.0422 23.9649 28.8416 23.9649 28.5938V8.8105C23.9646 8.56477 23.7667 8.36478 23.5209 8.36179ZM10.5159 6.12448C10.5159 3.712 12.4785 1.74913 14.891 1.74913C17.3038 1.74913 19.2669 3.712 19.2669 6.12448V8.31425L10.5159 8.2165V6.12448ZM23.0677 28.1453H6.82696V9.07238L9.6191 9.10347V10.4466C9.00058 10.649 8.54918 11.2248 8.54918 11.9103C8.54918 12.7631 9.24303 13.4567 10.0956 13.4567C10.9482 13.4567 11.6421 12.7628 11.6421 11.9103C11.6421 11.2042 11.1634 10.6134 10.5156 10.429V9.11363L19.2666 9.21139V10.438C18.6335 10.6317 18.1686 11.2146 18.1686 11.9103C18.1686 12.7631 18.8625 13.4567 19.7151 13.4567C20.5676 13.4567 21.2615 12.7628 21.2615 11.9103C21.2615 11.2146 20.7966 10.6314 20.1635 10.438V9.22155L23.0674 9.25414V28.1453H23.0677ZM10.0956 11.2607C10.4538 11.2607 10.7452 11.5521 10.7452 11.9103C10.7452 12.2684 10.4538 12.5599 10.0956 12.5599C9.73748 12.5599 9.44601 12.2684 9.44601 11.9103C9.44601 11.5521 9.73748 11.2607 10.0956 11.2607ZM19.7154 11.2607C20.0735 11.2607 20.365 11.5521 20.365 11.9103C20.365 12.2684 20.0735 12.5599 19.7154 12.5599C19.3572 12.5599 19.0658 12.2684 19.0658 11.9103C19.0658 11.5521 19.3572 11.2607 19.7154 11.2607Z" fill="white"/>
</svg>
