<svg width="28" height="30" viewBox="0 0 28 30" fill="none" xmlns="http://www.w3.org/2000/svg">
<path d="M14.3327 16.2531C8.08327 16.2531 3 21.3327 3 27.5778C3 27.8168 3.20931 28.026 3.44852 28.026H25.187C25.4262 28.026 25.6355 27.8168 25.6355 27.5778C25.6654 21.3327 20.5821 16.2531 14.3327 16.2531ZM14.3327 17.1495C15.7082 17.1495 17.0537 17.4184 18.2498 17.9264L14.4822 20.7052L10.4455 17.9264C11.6416 17.4184 12.9572 17.1495 14.3327 17.1495ZM3.92695 27.1295C4.07646 23.3347 6.31907 20.0479 9.48864 18.3447L14.243 21.6017C14.3327 21.6614 14.4224 21.6913 14.4822 21.6913C14.5719 21.6913 14.6616 21.6614 14.7513 21.6017L19.1767 18.3447C22.3762 20.018 24.5889 23.3048 24.7384 27.1295H3.92695Z" fill="white"/>
<path d="M14.1532 15.0279C17.7413 15.0279 20.6716 12.0996 20.6716 8.51394C20.6716 4.92829 17.7413 2 14.1532 2C10.5651 2 7.63477 4.92829 7.63477 8.51394C7.63477 12.1295 10.5651 15.0279 14.1532 15.0279ZM14.1532 2.92629C16.5453 2.92629 18.5786 4.42032 19.3859 6.51195C19.1168 6.36255 18.7879 6.18327 18.4889 6.00398C17.233 5.25697 16.3659 4.77888 15.7978 4.83864C14.6615 4.92829 14.0037 5.37649 13.2861 5.8247C12.8974 6.06374 12.4787 6.33267 11.9704 6.54183L11.8209 6.60159C10.7146 7.0498 10.0269 7.3486 8.6813 7.49801C9.12982 4.89841 11.4023 2.92629 14.1532 2.92629ZM8.5318 8.39442C10.1465 8.24502 10.9538 7.91633 12.1199 7.40837L12.2694 7.3486C12.8675 7.10956 13.316 6.81076 13.7346 6.54183C14.3924 6.12351 14.9605 5.76494 15.8576 5.70518C16.1865 5.6753 17.3227 6.36255 18.0104 6.751C18.6982 7.16932 19.2663 7.49801 19.6849 7.61753C19.7447 7.91633 19.7746 8.21514 19.7746 8.51394C19.7746 11.5916 17.2629 14.1315 14.1532 14.1315C11.0435 14.1315 8.5318 11.6215 8.5318 8.51394C8.5318 8.48406 8.5318 8.45418 8.5318 8.39442Z" fill="white"/>
</svg>
