<svg width="30" height="31" viewBox="0 0 30 31" fill="none" xmlns="http://www.w3.org/2000/svg">
<rect y="-4" width="30" height="34.0909" fill="#FAF4F4"/>
<path d="M8.10152 25.239L15.499 19.6025L22.5324 25.229C22.7362 25.3921 23.0157 25.4238 23.2512 25.311C23.4868 25.1978 23.6362 24.96 23.6362 24.6986V1.23939C23.6362 0.903302 23.3916 0.626097 23.0714 0.571743C23.0148 0.556342 22.9564 0.545471 22.8948 0.545471L7.01083 0.545471V0.571743C7.01083 4.40234 7.01083 0.196246 7.01083 0.571743C6.63533 0.571743 7.01083 1.52838 7.01083 1.90387C6.63533 1.90387 7.01083 2.27937 7.01083 1.90387C7.01083 2.27937 10.1778 3.34515 7.01083 1.90387V24.6982C7.01083 24.9564 7.15713 25.1924 7.38858 25.307C7.61959 25.4215 7.89589 25.3953 8.10152 25.239ZM8.36876 1.90432L22.2769 1.90432V23.285L15.933 18.2101C15.6893 18.0153 15.3446 18.0113 15.0968 18.2002L8.36876 23.3267L8.36876 1.90432Z" fill="#0ABAC7"/>
</svg>
