<svg width="30" height="29" viewBox="0 0 30 29" fill="none" xmlns="http://www.w3.org/2000/svg">
<path d="M8.16628 12.7546L14.1156 22.7116C14.2091 22.8682 14.3775 22.9648 14.5599 22.9662C14.5613 22.9662 14.5631 22.9662 14.5644 22.9662C14.7451 22.9662 14.9132 22.8727 15.0088 22.7192L21.2015 12.7622C21.2169 12.7375 21.2301 12.7117 21.2406 12.6855C21.981 11.4763 22.3716 10.0952 22.3716 8.68512C22.3716 4.44758 18.9234 1 14.6848 1C10.4476 1 7 4.44758 7 8.68512C7 10.0955 7.39097 11.477 8.13175 12.6865C8.14152 12.7099 8.15303 12.7326 8.16628 12.7546ZM14.6851 2.04666C18.3468 2.04666 21.3257 5.02479 21.3257 8.68547C21.3257 9.92883 20.9731 11.1471 20.3062 12.208C20.2902 12.2331 20.2769 12.2593 20.2661 12.2865L14.5735 21.4382L9.1097 12.2938C9.09784 12.2642 9.08354 12.2352 9.06611 12.2077C8.39926 11.1467 8.04666 9.92883 8.04666 8.68512C8.04666 5.02479 11.0248 2.04666 14.6851 2.04666Z" fill="#231F20"/>
<path d="M14.6862 11.543C16.2616 11.543 17.5433 10.2612 17.5433 8.68585C17.5433 7.11046 16.2616 5.82874 14.6862 5.82874C13.1108 5.82874 11.8291 7.11046 11.8291 8.68585C11.8291 10.2612 13.1108 11.543 14.6862 11.543ZM14.6862 6.87504C15.6847 6.87504 16.497 7.68732 16.497 8.68585C16.497 9.68437 15.6847 10.4967 14.6862 10.4967C13.6877 10.4967 12.8754 9.68437 12.8754 8.68585C12.8751 7.68732 13.6877 6.87504 14.6862 6.87504Z" fill="#231F20"/>
<path d="M21.2933 25.9708H8.07882C7.78969 25.9708 7.55566 26.2052 7.55566 26.494C7.55566 26.7828 7.78969 27.0171 8.07882 27.0171H21.2933C21.5821 27.0171 21.8165 26.7828 21.8165 26.494C21.8165 26.2052 21.5821 25.9708 21.2933 25.9708Z" fill="#231F20"/>
</svg>
