<svg width="30" height="35" viewBox="0 0 30 35" fill="none" xmlns="http://www.w3.org/2000/svg">
<path d="M8.10177 29.2389L15.4993 23.6024L22.5326 29.229C22.7365 29.392 23.0159 29.4238 23.2515 29.311C23.487 29.1977 23.6365 28.9599 23.6365 28.6986V5.23933C23.6365 4.90324 23.3919 4.62604 23.0716 4.57168C23.015 4.55628 22.9566 4.54541 22.895 4.54541L7.01107 4.54541V4.57168C7.01107 8.40228 7.01107 4.19619 7.01107 4.57168C6.63558 4.57168 7.01107 5.52831 7.01107 5.90381C6.63558 5.90381 7.01107 6.27931 7.01107 5.90381C7.01107 6.27931 10.1781 7.34509 7.01107 5.90381V28.6981C7.01107 28.9563 7.15737 29.1923 7.38883 29.3069C7.61983 29.4215 7.89613 29.3952 8.10177 29.2389ZM8.36901 5.90426L22.2772 5.90426V27.2849L15.9332 22.2101C15.6895 22.0153 15.3448 22.0112 15.0971 22.2001L8.36901 27.3266L8.36901 5.90426Z" fill="#FAF4F4"/>
</svg>
