<svg width="28" height="28" viewBox="0 0 28 28" fill="none" xmlns="http://www.w3.org/2000/svg">
<path d="M16.9751 23.894C15.866 24.5151 14.7737 24.827 13.7561 24.827C12.9043 24.8268 12.1049 24.608 11.3934 24.1688L8.77094 22.5511C8.67635 22.4928 8.60883 22.3996 8.58316 22.2913C8.55749 22.1834 8.57618 22.0695 8.6345 21.9749L10.9076 18.2908C10.9659 18.1965 11.0594 18.129 11.1674 18.1033C11.2762 18.0779 11.3895 18.0964 11.4838 18.1547L14.1261 19.7855C14.5323 20.0361 15.0535 20.1161 15.5549 20.0059C16.0563 19.8954 16.4843 19.6047 16.7293 19.2074L20.3205 13.3874C20.8397 12.5459 20.578 11.4388 19.7371 10.9195C19.7371 10.9195 19.7368 10.9195 19.7368 10.9193L16.9943 9.22619C16.7976 9.10482 16.7368 8.84701 16.8582 8.6503L19.1316 4.96702C19.253 4.77032 19.5111 4.70865 19.7075 4.83058L22.4477 6.52197C25.5018 8.407 25.3947 13.3553 22.1865 18.5556C20.7159 20.9401 18.8649 22.836 16.9751 23.894ZM22.0077 7.23402L19.6238 5.76277L17.7898 8.73373L20.1762 10.2069C20.1768 10.2072 20.1771 10.2075 20.1774 10.2078C21.41 10.9698 21.794 12.5928 21.0325 13.8266L17.4413 19.6463C17.0783 20.2353 16.4561 20.6641 15.7346 20.8232C15.0228 20.9791 14.2759 20.8611 13.6863 20.4973L11.4004 19.0863L9.56669 22.0578L11.8331 23.456C13.4882 24.4772 15.3205 23.8605 16.5661 23.1633C18.3336 22.1733 20.0769 20.3809 21.4742 18.1159C24.4234 13.3352 24.6427 8.8604 22.0077 7.23402Z" fill="#001D5B"/>
<path d="M14.1667 9.36147C12.8123 9.44155 11.6137 10.1374 10.8776 11.2711C10.174 12.3514 10.0046 13.6753 10.4134 14.9035C10.4865 15.1229 10.3679 15.36 10.1486 15.4326C10.1048 15.4473 10.0604 15.454 10.0163 15.454C9.84081 15.454 9.67759 15.3433 9.61928 15.1678C9.12933 13.6962 9.33245 12.1092 10.1759 10.8146C11.0448 9.47587 12.5185 8.62013 14.1173 8.52554C14.3503 8.51578 14.5461 8.68793 14.5598 8.91867C14.5735 9.1497 14.3974 9.3478 14.1667 9.36147Z" fill="#001D5B"/>
<path d="M13.5804 6.25492C11.3873 6.50687 9.44061 7.71026 8.23945 9.55594C7.07567 11.3453 6.74588 13.5484 7.33488 15.6005C7.39877 15.8229 7.27042 16.0545 7.04833 16.1181C7.00955 16.1293 6.97104 16.1346 6.93254 16.1346C6.7509 16.1346 6.58321 16.0149 6.53076 15.8316C5.87479 13.5461 6.24198 11.0922 7.538 9.09947C8.8756 7.04397 11.043 5.70414 13.4849 5.42345C13.7101 5.39694 13.9219 5.56184 13.9484 5.79147C13.9749 6.0211 13.8103 6.22841 13.5804 6.25492Z" fill="#001D5B"/>
<path d="M13.0082 3.51898C10.0956 3.92383 7.50579 5.57002 5.90257 8.03567C4.332 10.4483 3.86102 13.4282 4.6099 16.2111C4.67016 16.4343 4.53763 16.6639 4.31442 16.7239C4.27815 16.7337 4.24132 16.7384 4.20532 16.7384C4.0209 16.7384 3.85153 16.6157 3.80159 16.4287C2.99077 13.4165 3.50081 10.1908 5.20085 7.5792C6.93632 4.91042 9.73987 3.12835 12.8925 2.69002C13.1204 2.65961 13.333 2.81781 13.3645 3.04688C13.3966 3.27567 13.237 3.48717 13.0082 3.51898Z" fill="#001D5B"/>
</svg>
