<svg width="28" height="30" viewBox="0 0 28 30" fill="none" xmlns="http://www.w3.org/2000/svg">
<path d="M22.5905 8.36179L19.2334 8.32442V6.12448C19.2334 3.21725 16.8678 0.852295 13.9606 0.852295C11.0536 0.852295 8.68868 3.21755 8.68868 6.12448V8.20663L5.4532 8.17046C5.33063 8.17315 5.21793 8.2159 5.13303 8.3002C5.04783 8.38451 5 8.4993 5 8.61888V28.5938C5 28.8416 5.20059 29.0422 5.44842 29.0422H22.586C22.8338 29.0422 23.0344 28.8416 23.0344 28.5938V8.8105C23.0341 8.56477 22.8362 8.36478 22.5905 8.36179ZM9.58551 6.12448C9.58551 3.712 11.5481 1.74913 13.9606 1.74913C16.3734 1.74913 18.3365 3.712 18.3365 6.12448V8.31425L9.58551 8.2165V6.12448ZM22.1373 28.1453H5.89654V9.07238L8.68868 9.10347V10.4466C8.07016 10.649 7.61876 11.2248 7.61876 11.9103C7.61876 12.7631 8.31261 13.4567 9.1652 13.4567C10.0178 13.4567 10.7116 12.7628 10.7116 11.9103C10.7116 11.2042 10.233 10.6134 9.58521 10.429V9.11363L18.3362 9.21139V10.438C17.7031 10.6317 17.2382 11.2146 17.2382 11.9103C17.2382 12.7631 17.932 13.4567 18.7846 13.4567C19.6372 13.4567 20.3311 12.7628 20.3311 11.9103C20.3311 11.2146 19.8662 10.6314 19.2331 10.438V9.22155L22.137 9.25414V28.1453H22.1373ZM9.1652 11.2607C9.52333 11.2607 9.8148 11.5521 9.8148 11.9103C9.8148 12.2684 9.52333 12.5599 9.1652 12.5599C8.80706 12.5599 8.51559 12.2684 8.51559 11.9103C8.51559 11.5521 8.80706 11.2607 9.1652 11.2607ZM18.7849 11.2607C19.1431 11.2607 19.4345 11.5521 19.4345 11.9103C19.4345 12.2684 19.1431 12.5599 18.7849 12.5599C18.4268 12.5599 18.1353 12.2684 18.1353 11.9103C18.1353 11.5521 18.4268 11.2607 18.7849 11.2607Z" fill="white"/>
</svg>
