<svg width="25" height="30" viewBox="0 0 25 30" fill="none" xmlns="http://www.w3.org/2000/svg">
<path d="M5.1571 28.885L12.8035 22.948L20.0734 28.8745C20.2841 29.0463 20.5729 29.0797 20.8164 28.9609C21.0599 28.8416 21.2144 28.5911 21.2144 28.3158V3.60592C21.2144 3.25191 20.9615 2.95992 20.6305 2.90267C20.572 2.88645 20.5116 2.875 20.4479 2.875L4.02971 2.875V2.90267C4.02971 6.93748 4.02971 2.50716 4.02971 2.90267C3.64159 2.90267 4.02971 3.9103 4.02971 4.30582C3.64159 4.30582 4.02971 4.70133 4.02971 4.30582C4.02971 4.70133 7.30324 5.82393 4.02971 4.30582V28.3153C4.02971 28.5873 4.18094 28.8359 4.42018 28.9566C4.65895 29.0773 4.94454 29.0496 5.1571 28.885ZM5.43333 4.3063L19.8093 4.3063V26.8268L13.252 21.4814C13.0001 21.2762 12.6438 21.2719 12.3877 21.4709L5.43333 26.8707L5.43333 4.3063Z" fill="#FAF4F4"/>
</svg>
