<svg width="28" height="27" viewBox="0 0 28 27" fill="none" xmlns="http://www.w3.org/2000/svg">
<path d="M8.63762 13.6955L13.3971 21.6611C13.4718 21.7864 13.6066 21.8637 13.7525 21.8648C13.7536 21.8648 13.755 21.8648 13.7561 21.8648C13.9007 21.8648 14.0352 21.79 14.1116 21.6673L19.0658 13.7017C19.0781 13.6818 19.0887 13.6612 19.0971 13.6403C19.6894 12.6729 20.0019 11.568 20.0019 10.44C20.0019 7.04994 17.2433 4.29187 13.8524 4.29187C10.4627 4.29187 7.70459 7.04994 7.70459 10.44C7.70459 11.5683 8.01737 12.6735 8.60999 13.6411C8.61781 13.6598 8.62701 13.6779 8.63762 13.6955ZM13.8527 5.12919C16.7821 5.12919 19.1651 7.51171 19.1651 10.4402C19.1651 11.4349 18.883 12.4095 18.3496 13.2583C18.3367 13.2784 18.3261 13.2993 18.3175 13.3211L13.7634 20.6424L9.39235 13.3269C9.38286 13.3032 9.37143 13.2801 9.35747 13.258C8.824 12.4093 8.54191 11.4349 8.54191 10.44C8.54191 7.51171 10.9244 5.12919 13.8527 5.12919Z" fill="#001D5B"/>
<path d="M13.8536 12.7262C15.1139 12.7262 16.1393 11.7008 16.1393 10.4405C16.1393 9.18017 15.1139 8.15479 13.8536 8.15479C12.5933 8.15479 11.5679 9.18017 11.5679 10.4405C11.5679 11.7008 12.5933 12.7262 13.8536 12.7262ZM13.8536 8.99183C14.6524 8.99183 15.3022 9.64166 15.3022 10.4405C15.3022 11.2393 14.6524 11.8891 13.8536 11.8891C13.0547 11.8891 12.4049 11.2393 12.4049 10.4405C12.4046 9.64166 13.0547 8.99183 13.8536 8.99183Z" fill="#001D5B"/>
<path d="M19.1391 24.2684H8.56745C8.33614 24.2684 8.14893 24.4559 8.14893 24.687C8.14893 24.918 8.33614 25.1055 8.56745 25.1055H19.1391C19.3701 25.1055 19.5576 24.918 19.5576 24.687C19.5576 24.4559 19.3701 24.2684 19.1391 24.2684Z" fill="#001D5B"/>
</svg>
