<svg width="19" height="25" viewBox="0 0 19 25" fill="none" xmlns="http://www.w3.org/2000/svg">
<path d="M4.42593 20.3613L9.57144 16.5783L14.4637 20.3546C14.6054 20.4641 14.7998 20.4854 14.9636 20.4097C15.1275 20.3337 15.2314 20.1741 15.2314 19.9986L15.2314 4.25358C15.2314 4.02801 15.0613 3.84195 14.8386 3.80547C14.7992 3.79514 14.7585 3.78784 14.7157 3.78784L3.66727 3.78784V3.80547C3.66727 6.37644 3.66727 3.55345 3.66727 3.80547C3.40609 3.80547 3.66727 4.44753 3.66727 4.69955C3.40609 4.69955 3.66727 4.95158 3.66727 4.69955C3.66727 4.95158 5.87015 5.66689 3.66727 4.69955L3.66727 19.9983C3.66727 20.1716 3.76904 20.33 3.93003 20.4069C4.09071 20.4838 4.2829 20.4662 4.42593 20.3613ZM4.61181 4.69986L14.286 4.69986L14.286 19.0498L9.87327 15.6438C9.70377 15.513 9.46401 15.5103 9.29167 15.6371L4.61181 19.0778L4.61181 4.69986Z" fill="#0293A4"/>
</svg>
