<svg width="30" height="30" viewBox="0 0 30 30" fill="none" xmlns="http://www.w3.org/2000/svg">
<path d="M15.1569 16.2531C8.90749 16.2531 3.82422 21.3327 3.82422 27.5778C3.82422 27.8168 4.03353 28.026 4.27274 28.026H26.0112C26.2504 28.026 26.4597 27.8168 26.4597 27.5778C26.4896 21.3327 21.4063 16.2531 15.1569 16.2531ZM15.1569 17.1495C16.5324 17.1495 17.878 17.4184 19.074 17.9264L15.3064 20.7052L11.2697 17.9264C12.4658 17.4184 13.7814 17.1495 15.1569 17.1495ZM4.75117 27.1295C4.90068 23.3347 7.14329 20.0479 10.3129 18.3447L15.0672 21.6017C15.1569 21.6614 15.2466 21.6913 15.3064 21.6913C15.3961 21.6913 15.4858 21.6614 15.5755 21.6017L20.001 18.3447C23.2004 20.018 25.4132 23.3048 25.5627 27.1295H4.75117Z" fill="white"/>
<path d="M14.9774 15.0279C18.5655 15.0279 21.4959 12.0996 21.4959 8.51394C21.4959 4.92829 18.5655 2 14.9774 2C11.3893 2 8.45898 4.92829 8.45898 8.51394C8.45898 12.1295 11.3893 15.0279 14.9774 15.0279ZM14.9774 2.92629C17.3695 2.92629 19.4028 4.42032 20.2101 6.51195C19.941 6.36255 19.6121 6.18327 19.3131 6.00398C18.0572 5.25697 17.1901 4.77888 16.622 4.83864C15.4857 4.92829 14.8279 5.37649 14.1103 5.8247C13.7216 6.06374 13.303 6.33267 12.7946 6.54183L12.6451 6.60159C11.5388 7.0498 10.8511 7.3486 9.50552 7.49801C9.95404 4.89841 12.2265 2.92629 14.9774 2.92629ZM9.35602 8.39442C10.9707 8.24502 11.778 7.91633 12.9441 7.40837L13.0936 7.3486C13.6917 7.10956 14.1402 6.81076 14.5588 6.54183C15.2166 6.12351 15.7847 5.76494 16.6818 5.70518C17.0107 5.6753 18.1469 6.36255 18.8347 6.751C19.5224 7.16932 20.0905 7.49801 20.5091 7.61753C20.5689 7.91633 20.5988 8.21514 20.5988 8.51394C20.5988 11.5916 18.0871 14.1315 14.9774 14.1315C11.8677 14.1315 9.35602 11.6215 9.35602 8.51394C9.35602 8.48406 9.35602 8.45418 9.35602 8.39442Z" fill="white"/>
</svg>
