<svg width="20" height="18" viewBox="0 0 20 18" fill="none" xmlns="http://www.w3.org/2000/svg">
<path d="M10.0026 15.7195C10.0006 15.7195 9.99862 15.7195 9.99683 15.7195C9.67006 15.7195 9.40283 15.9573 9.39944 16.2519C9.39626 16.5484 9.66169 16.7917 9.99125 16.7948C9.99324 16.7948 9.99523 16.7948 9.99702 16.7948C10.1543 16.7948 10.3027 16.7403 10.4154 16.641C10.5291 16.5405 10.5928 16.4061 10.5942 16.2625C10.5974 15.9661 10.332 15.7225 10.0026 15.7195Z" fill="#027B89"/>
<path d="M10.1645 0.900204C10.1479 0.900024 10.1318 0.900024 10.1153 0.900024C7.39301 0.900024 5.16497 2.86727 5.13869 5.30513C5.13709 5.4537 5.26951 5.57503 5.43439 5.57664H5.43738C6.0002 5.65483 6.66219 5.48872 6.66687 5.05483C6.68997 2.91142 7.71958 1.43785 10.1153 1.43785C10.1296 1.43785 10.1444 1.43785 10.1587 1.43803C12.5743 1.45918 13.6902 2.89852 13.6669 5.05483C13.6507 6.55988 13.1976 8.03281 11.6669 8.70002C10.0328 9.74661 9.33354 10.8452 9.33354 12V13.2L9.5739 14.2533C9.57231 14.4019 9.75746 14.5179 9.92233 14.5195H9.92532C10.089 14.5195 10.2224 14.4008 10.224 14.2533L10.2473 12.089C10.2561 11.2701 10.6038 10.147 12.2107 9.44661C13.9443 8.69122 15.0764 7.09979 15.0945 5.39223C15.1212 2.93913 12.9095 0.924218 10.1645 0.900204Z" fill="#027B89"/>
</svg>
