<svg width="30" height="28" viewBox="0 0 30 28" fill="none" xmlns="http://www.w3.org/2000/svg">
<path d="M15.0037 24.4203C15.0007 24.4203 14.9977 24.4203 14.995 24.4203C14.5048 24.4203 14.104 24.7902 14.0989 25.2485C14.0941 25.7096 14.4923 26.0882 14.9866 26.093C14.9896 26.093 14.9926 26.093 14.9953 26.093C15.2313 26.093 15.4538 26.0082 15.6228 25.8538C15.7934 25.6974 15.889 25.4883 15.8911 25.265C15.8958 24.8039 15.4977 24.425 15.0037 24.4203Z" fill="white"/>
<path d="M15.2465 1.4003C15.2217 1.40002 15.1975 1.40002 15.1727 1.40002C11.0893 1.40002 7.74721 4.46018 7.70779 8.25241C7.7054 8.48352 7.90403 8.67225 8.15134 8.67476H8.15582C9.00006 8.79639 9.99305 8.538 10.0001 7.86306C10.0347 4.52887 11.5791 2.23664 15.1727 2.23664C15.1942 2.23664 15.2163 2.23664 15.2378 2.23692C18.8612 2.26981 20.535 4.50879 20.5001 7.86306C20.4759 10.2042 19.7961 12.4955 17.5001 13.5334C15.0489 15.1614 14.0001 16.8703 14.0001 18.6667V20.5334L14.3606 22.1718C14.3582 22.403 14.6359 22.5833 14.8833 22.5858H14.8877C15.1333 22.5858 15.3334 22.4013 15.3358 22.1718L15.3707 18.805C15.3839 17.5313 15.9054 15.7842 18.3158 14.6947C20.9162 13.5197 22.6143 11.0441 22.6415 8.3879C22.6815 4.57197 19.3639 1.43766 15.2465 1.4003Z" fill="white"/>
</svg>
