<svg width="24" height="28" viewBox="0 0 22 26" fill="none" xmlns="http://www.w3.org/2000/svg">
<path d="M11.0032 22.7922C11.0004 22.7922 10.9976 22.7922 10.9951 22.7922C10.5376 22.7922 10.1635 23.1375 10.1587 23.5653C10.1543 23.9956 10.5259 24.349 10.9873 24.3534C10.9901 24.3534 10.9928 24.3534 10.9953 24.3534C11.2156 24.3534 11.4233 24.2743 11.5811 24.1302C11.7402 23.9842 11.8295 23.789 11.8314 23.5806C11.8359 23.1503 11.4643 22.7967 11.0032 22.7922Z" fill="white"/>
<path d="M11.23 1.3069C11.2068 1.30664 11.1843 1.30664 11.1611 1.30664C7.34992 1.30664 4.23067 4.16279 4.19387 7.7022C4.19164 7.9179 4.37703 8.09405 4.60785 8.09639H4.61204C5.39999 8.20992 6.32678 7.96875 6.33333 7.33881C6.36566 4.22689 7.80712 2.08748 11.1611 2.08748C11.1812 2.08748 11.2018 2.08748 11.2219 2.08774C14.6038 2.11844 16.1659 4.20816 16.1333 7.33881C16.1107 9.52391 15.4763 11.6624 13.3333 12.6311C11.0456 14.1506 10.0667 15.7456 10.0667 17.4222V19.1644L10.4032 20.6937C10.4009 20.9094 10.6601 21.0777 10.891 21.0801H10.8952C11.1243 21.0801 11.3111 20.9078 11.3133 20.6937L11.3459 17.5513C11.3582 16.3625 11.845 14.7319 14.0947 13.715C16.5218 12.6183 18.1066 10.3078 18.132 7.82866C18.1693 4.26712 15.0729 1.34177 11.23 1.3069Z" fill="white"/>
</svg>
