<svg width="24" height="30" viewBox="0 0 24 30" fill="none" xmlns="http://www.w3.org/2000/svg">
<path d="M12.0037 26.4203C12.0007 26.4203 11.9977 26.4203 11.995 26.4203C11.5048 26.4203 11.104 26.7902 11.0989 27.2485C11.0941 27.7096 11.4923 28.0882 11.9866 28.093C11.9896 28.093 11.9926 28.093 11.9953 28.093C12.2313 28.093 12.4538 28.0082 12.6228 27.8538C12.7934 27.6974 12.889 27.4883 12.8911 27.265C12.8958 26.8039 12.4977 26.425 12.0037 26.4203Z" fill="white"/>
<path d="M12.2465 3.4003C12.2217 3.40002 12.1975 3.40002 12.1727 3.40002C8.08927 3.40002 4.74721 6.46018 4.70779 10.2524C4.7054 10.4835 4.90403 10.6723 5.15134 10.6748H5.15582C6.00006 10.7964 6.99305 10.538 7.00006 9.86306C7.03471 6.52887 8.57913 4.23664 12.1727 4.23664C12.1942 4.23664 12.2163 4.23664 12.2378 4.23692C15.8612 4.26981 17.535 6.50879 17.5001 9.86306C17.4759 12.2042 16.7961 14.4955 14.5001 15.5334C12.0489 17.1614 11.0001 18.8703 11.0001 20.6667V22.5334L11.3606 24.1718C11.3582 24.403 11.6359 24.5833 11.8833 24.5858H11.8877C12.1333 24.5858 12.3334 24.4013 12.3358 24.1718L12.3707 20.805C12.3839 19.5313 12.9054 17.7842 15.3158 16.6947C17.9162 15.5197 19.6143 13.0441 19.6415 10.3879C19.6815 6.57197 16.3639 3.43766 12.2465 3.4003Z" fill="white"/>
</svg>
