<svg width="24" height="24" viewBox="0 0 24 24" fill="none" xmlns="http://www.w3.org/2000/svg">
<path d="M22.2629 18.2293C22.2741 18.1946 22.2817 18.158 22.2817 18.1195V5.41403C22.2817 5.37529 22.2741 5.33846 22.2626 5.30354C22.2609 5.29876 22.26 5.29398 22.2581 5.28919C22.2428 5.2483 22.2203 5.21147 22.1921 5.17918C22.1902 5.17703 22.1899 5.1744 22.188 5.17225C22.1868 5.17105 22.1854 5.17057 22.1842 5.16938C22.154 5.13733 22.1184 5.1115 22.0785 5.09213C22.0754 5.0907 22.073 5.08878 22.0699 5.08735C22.0321 5.07037 21.9909 5.0608 21.9477 5.05793C21.9433 5.05769 21.9393 5.05674 21.935 5.05674C21.9309 5.0565 21.9273 5.05554 21.9233 5.05554H2.0245C2.02043 5.05554 2.0166 5.0565 2.01254 5.05674C2.00871 5.05698 2.00489 5.05769 2.00106 5.05793C1.95729 5.0608 1.91544 5.07061 1.87718 5.08783C1.87479 5.08878 1.87287 5.09046 1.87048 5.09141C1.82983 5.11079 1.79371 5.13709 1.76334 5.16962C1.76215 5.17081 1.76071 5.17105 1.75951 5.17225C1.7576 5.17416 1.75736 5.17679 1.75545 5.17895C1.72723 5.21123 1.70451 5.2483 1.6892 5.28919C1.68729 5.29398 1.68633 5.29876 1.68466 5.30378C1.67318 5.3387 1.66553 5.37553 1.66553 5.41427V18.12C1.66553 18.1592 1.67342 18.1965 1.68514 18.2319C1.68681 18.2367 1.68777 18.2413 1.68944 18.246C1.70499 18.2872 1.72795 18.3243 1.75641 18.3565C1.75808 18.3584 1.75856 18.3608 1.76023 18.3628C1.76167 18.3644 1.76358 18.3654 1.76525 18.3671C1.77697 18.3793 1.78989 18.39 1.80328 18.4005C1.80926 18.4051 1.81452 18.4106 1.82074 18.4149C1.83652 18.4259 1.8535 18.4347 1.87096 18.4429C1.87526 18.4448 1.87909 18.4479 1.8834 18.4496C1.92668 18.468 1.97427 18.4785 2.02426 18.4785H21.9228C21.9728 18.4785 22.0204 18.4682 22.0636 18.4496C22.0703 18.4467 22.0766 18.4424 22.083 18.439C22.0978 18.4316 22.1127 18.424 22.1263 18.4147C22.1335 18.4096 22.1399 18.4032 22.1469 18.3977C22.1591 18.3879 22.171 18.3781 22.1815 18.3668C22.1835 18.3649 22.1856 18.3635 22.1875 18.3616C22.1894 18.3594 22.1899 18.3565 22.1918 18.3544C22.2198 18.3223 22.2423 18.2855 22.2576 18.2449C22.26 18.2396 22.2612 18.2346 22.2629 18.2293ZM2.38323 6.22763L8.42113 11.7428L2.38323 17.3019V6.22763ZM14.7585 11.4725C14.7336 11.4888 14.7073 11.5024 14.6865 11.5254C14.6786 11.534 14.676 11.5452 14.669 11.5543L11.9738 14.0161L2.94906 5.77276H20.9985L14.7585 11.4725ZM8.95301 12.2285L11.7317 14.7666C11.8004 14.8293 11.8869 14.8606 11.9738 14.8606C12.0606 14.8606 12.1471 14.8293 12.2155 14.7666L14.9598 12.26L20.9968 17.761H2.9438L8.95301 12.2285ZM15.4919 11.7741L21.5643 6.22763V17.3076L15.4919 11.7741Z" fill="#001D5B"/>
</svg>
