<svg width="22" height="26" viewBox="0 0 22 26" fill="none" xmlns="http://www.w3.org/2000/svg">
<path d="M3.73092 25.2306L10.9641 19.5315L17.8411 25.2205C18.0404 25.3854 18.3137 25.4175 18.544 25.3034C18.7743 25.1889 18.9204 24.9485 18.9204 24.6842V0.964326C18.9204 0.624502 18.6813 0.344217 18.3681 0.289259C18.3128 0.273687 18.2556 0.262695 18.1954 0.262695L2.66446 0.262695V0.289259C2.66446 4.16241 2.66446 -0.09041 2.66446 0.289259C2.29731 0.289259 2.66446 1.25652 2.66446 1.63619C2.29731 1.63619 2.66446 2.01586 2.66446 1.63619C2.66446 2.01586 5.76108 3.09348 2.66446 1.63619V24.6838C2.66446 24.9448 2.80751 25.1834 3.03382 25.2993C3.25969 25.4152 3.52985 25.3886 3.73092 25.2306ZM3.99222 1.63665L17.5913 1.63665V23.2549L11.3883 18.1236C11.1501 17.9267 10.813 17.9226 10.5708 18.1135L3.99222 23.297L3.99222 1.63665Z" fill="#FAF4F4"/>
</svg>
