<svg width="24" height="24" viewBox="0 0 24 24" fill="none" xmlns="http://www.w3.org/2000/svg">
<path d="M12.1257 13.0023C7.12618 13.0023 3.05957 17.0661 3.05957 22.0621C3.05957 22.2533 3.22702 22.4206 3.41839 22.4206H20.8091C21.0005 22.4206 21.168 22.2533 21.168 22.0621C21.1919 17.0661 17.1253 13.0023 12.1257 13.0023ZM12.1257 13.7195C13.2261 13.7195 14.3026 13.9346 15.2594 14.341L12.2453 16.5641L9.01596 14.341C9.97281 13.9346 11.0253 13.7195 12.1257 13.7195ZM3.80113 21.7035C3.92074 18.6677 5.71483 16.0382 8.25048 14.6756L12.054 17.2812C12.1257 17.329 12.1975 17.3529 12.2453 17.3529C12.3171 17.3529 12.3889 17.329 12.4606 17.2812L16.001 14.6756C18.5605 16.0143 20.3307 18.6438 20.4503 21.7035H3.80113Z" fill="white"/>
<path d="M11.9823 12.0223C14.8528 12.0223 17.1971 9.67965 17.1971 6.81113C17.1971 3.9426 14.8528 1.59998 11.9823 1.59998C9.11182 1.59998 6.76758 3.9426 6.76758 6.81113C6.76758 9.70356 9.11182 12.0223 11.9823 12.0223ZM11.9823 2.34101C13.896 2.34101 15.5226 3.53623 16.1685 5.20954C15.9532 5.09001 15.6901 4.94659 15.4508 4.80316C14.4462 4.20555 13.7525 3.82308 13.298 3.87089C12.389 3.9426 11.8627 4.30117 11.2886 4.65974C10.9776 4.85097 10.6428 5.06611 10.2361 5.23344L10.1165 5.28125C9.23143 5.63981 8.68125 5.87886 7.60481 5.99838C7.96362 3.9187 9.78161 2.34101 11.9823 2.34101ZM7.4852 6.71551C8.77693 6.59599 9.42279 6.33304 10.3557 5.92667L10.4753 5.87886C10.9537 5.68762 11.3125 5.44858 11.6474 5.23344C12.1737 4.89878 12.6282 4.61193 13.3458 4.56412C13.6089 4.54021 14.5179 5.09001 15.0681 5.40077C15.6183 5.73543 16.0728 5.99838 16.4077 6.094C16.4555 6.33304 16.4794 6.57209 16.4794 6.81113C16.4794 9.27328 14.4701 11.3052 11.9823 11.3052C9.49456 11.3052 7.4852 9.29718 7.4852 6.81113C7.4852 6.78723 7.4852 6.76332 7.4852 6.71551Z" fill="white"/>
</svg>
